<?xml version="1.0" encoding="UTF-8" standalone="no"?>
<!-- Generator: Adobe Illustrator 19.0.0, SVG Export Plug-In . SVG Version: 6.00 Build 0)  -->

<svg
   xmlns:dc="http://purl.org/dc/elements/1.1/"
   xmlns:cc="http://creativecommons.org/ns#"
   xmlns:rdf="http://www.w3.org/1999/02/22-rdf-syntax-ns#"
   xmlns:svg="http://www.w3.org/2000/svg"
   xmlns="http://www.w3.org/2000/svg"
   xmlns:sodipodi="http://sodipodi.sourceforge.net/DTD/sodipodi-0.dtd"
   xmlns:inkscape="http://www.inkscape.org/namespaces/inkscape"
   version="1.1"
   id="Capa_1"
   x="0px"
   y="0px"
   viewBox="0 0 60 60"
   style="enable-background:new 0 0 60 60;"
   xml:space="preserve"
   sodipodi:docname="fileHidden.svg"
   inkscape:version="0.92.4 (5da689c313, 2019-01-14)"><metadata
   id="metadata51"><rdf:RDF><cc:Work
       rdf:about=""><dc:format>image/svg+xml</dc:format><dc:type
         rdf:resource="http://purl.org/dc/dcmitype/StillImage" /><dc:title></dc:title></cc:Work></rdf:RDF></metadata><defs
   id="defs49"><inkscape:path-effect
   effect="bspline"
   id="path-effect88"
   is_visible="true"
   weight="33.333333"
   steps="2"
   helper_size="0"
   apply_no_weight="true"
   apply_with_weight="true"
   only_selected="false" /><inkscape:path-effect
   effect="bspline"
   id="path-effect84"
   is_visible="true"
   weight="33.333333"
   steps="2"
   helper_size="0"
   apply_no_weight="true"
   apply_with_weight="true"
   only_selected="false" />
	
	
	
	
	
	
</defs><sodipodi:namedview
   pagecolor="#ffffff"
   bordercolor="#666666"
   borderopacity="1"
   objecttolerance="10"
   gridtolerance="10"
   guidetolerance="10"
   inkscape:pageopacity="0"
   inkscape:pageshadow="2"
   inkscape:window-width="1920"
   inkscape:window-height="1017"
   id="namedview47"
   showgrid="false"
   inkscape:zoom="2.7812867"
   inkscape:cx="68.388675"
   inkscape:cy="-19.502935"
   inkscape:window-x="-8"
   inkscape:window-y="-8"
   inkscape:window-maximized="1"
   inkscape:current-layer="Capa_1" />

<g
   id="g16">
</g>
<g
   id="g18">
</g>
<g
   id="g20">
</g>
<g
   id="g22">
</g>
<g
   id="g24">
</g>
<g
   id="g26">
</g>
<g
   id="g28">
</g>
<g
   id="g30">
</g>
<g
   id="g32">
</g>
<g
   id="g34">
</g>
<g
   id="g36">
</g>
<g
   id="g38">
</g>
<g
   id="g40">
</g>
<g
   id="g42">
</g>
<g
   id="g44">
</g>
<path
   inkscape:connector-curvature="0"
   style="stroke:#ffffff"
   id="path12"
   d="M 38.914,0 H 6.5 v 60 h 47 V 14.586 Z M 39.5,3.414 50.086,14 H 39.5 Z M 8.5,58 V 2 h 29 v 14 h 14 v 42 z" /><g
   transform="matrix(0.60158673,0,0,0.58272803,12.903034,17.207856)"
   id="g12"><path
     inkscape:connector-curvature="0"
     d="m 11.285,41.39 c 0.184,0.146 0.404,0.218 0.623,0.218 0.294,0 0.585,-0.129 0.783,-0.377 0.344,-0.432 0.273,-1.061 -0.159,-1.405 -0.801,-0.638 -1.577,-1.331 -2.305,-2.06 l -7.398,-7.398 7.629,-7.629 c 7.334,-7.333 18.003,-9.836 27.839,-6.534 0.523,0.173 1.09,-0.107 1.267,-0.63 0.175,-0.523 -0.106,-1.091 -0.63,-1.267 C 28.372,10.763 16.918,13.451 9.044,21.324 L 0,30.368 8.812,39.18 c 0.781,0.782 1.614,1.525 2.473,2.21 z"
     id="path2-8" /><path
     inkscape:connector-curvature="0"
     d="m 50.237,21.325 c -1.348,-1.348 -2.826,-2.564 -4.394,-3.616 -0.458,-0.307 -1.081,-0.185 -1.388,0.273 -0.308,0.458 -0.185,1.08 0.273,1.388 1.46,0.979 2.838,2.113 4.094,3.369 l 7.398,7.398 -7.629,7.629 c -7.385,7.385 -18.513,9.882 -28.352,6.356 -0.52,-0.187 -1.093,0.084 -1.279,0.604 -0.186,0.52 0.084,1.092 0.604,1.279 3.182,1.14 6.49,1.693 9.776,1.693 7.621,0 15.124,-2.977 20.665,-8.518 l 9.043,-9.043 z"
     id="path4-2" /><path
     inkscape:connector-curvature="0"
     d="m 30.539,41.774 c -2.153,0 -4.251,-0.598 -6.07,-1.73 -0.467,-0.29 -1.084,-0.148 -1.377,0.321 -0.292,0.469 -0.148,1.085 0.321,1.377 2.135,1.33 4.6,2.032 7.126,2.032 7.444,0 13.5,-6.056 13.5,-13.5 0,-2.685 -0.787,-5.279 -2.275,-7.502 -0.308,-0.459 -0.93,-0.582 -1.387,-0.275 -0.459,0.308 -0.582,0.929 -0.275,1.387 1.267,1.893 1.937,4.102 1.937,6.39 0,6.342 -5.159,11.5 -11.5,11.5 z"
     id="path6-5" /><path
     inkscape:connector-curvature="0"
     d="m 30.539,18.774 c 2.065,0 4.089,0.553 5.855,1.6 0.474,0.281 1.088,0.125 1.37,-0.351 0.281,-0.475 0.125,-1.088 -0.351,-1.37 -2.074,-1.229 -4.451,-1.879 -6.875,-1.879 -7.444,0 -13.5,6.056 -13.5,13.5 0,2.084 0.462,4.083 1.374,5.941 0.174,0.354 0.529,0.56 0.899,0.56 0.147,0 0.298,-0.033 0.439,-0.102 0.496,-0.244 0.701,-0.843 0.458,-1.338 -0.776,-1.582 -1.17,-3.284 -1.17,-5.06 0.001,-6.342 5.16,-11.501 11.501,-11.501 z"
     id="path8-8" /><path
     inkscape:connector-curvature="0"
     d="m 54.621,5.567 c -0.391,-0.391 -1.023,-0.391 -1.414,0 l -46.5,46.5 c -0.391,0.391 -0.391,1.023 0,1.414 0.195,0.195 0.451,0.293 0.707,0.293 0.256,0 0.512,-0.098 0.707,-0.293 l 46.5,-46.5 c 0.391,-0.39 0.391,-1.023 0,-1.414 z"
     id="path10-7" /></g></svg>