<?xml version="1.0" encoding="UTF-8" standalone="no"?>
<!-- Generator: Adobe Illustrator 19.0.0, SVG Export Plug-In . SVG Version: 6.00 Build 0)  -->

<svg
   xmlns:dc="http://purl.org/dc/elements/1.1/"
   xmlns:cc="http://creativecommons.org/ns#"
   xmlns:rdf="http://www.w3.org/1999/02/22-rdf-syntax-ns#"
   xmlns:svg="http://www.w3.org/2000/svg"
   xmlns="http://www.w3.org/2000/svg"
   xmlns:sodipodi="http://sodipodi.sourceforge.net/DTD/sodipodi-0.dtd"
   xmlns:inkscape="http://www.inkscape.org/namespaces/inkscape"
   version="1.1"
   id="Capa_1"
   x="0px"
   y="0px"
   viewBox="0 0 59.049 59.049"
   style="enable-background:new 0 0 59.049 59.049;"
   xml:space="preserve"
   sodipodi:docname="Folderhidden.svg"
   inkscape:version="0.92.4 (5da689c313, 2019-01-14)"><metadata
   id="metadata49"><rdf:RDF><cc:Work
       rdf:about=""><dc:format>image/svg+xml</dc:format><dc:type
         rdf:resource="http://purl.org/dc/dcmitype/StillImage" /><dc:title></dc:title></cc:Work></rdf:RDF></metadata><defs
   id="defs47" /><sodipodi:namedview
   pagecolor="#ffffff"
   bordercolor="#666666"
   borderopacity="1"
   objecttolerance="10"
   gridtolerance="10"
   guidetolerance="10"
   inkscape:pageopacity="0"
   inkscape:pageshadow="2"
   inkscape:window-width="640"
   inkscape:window-height="480"
   id="namedview45"
   showgrid="false"
   inkscape:zoom="3.9966807"
   inkscape:cx="29.5245"
   inkscape:cy="29.5245"
   inkscape:window-x="792"
   inkscape:window-y="28"
   inkscape:window-maximized="0"
   inkscape:current-layer="Capa_1" />
<g
   id="g12">
	<path
   d="M11.285,41.39c0.184,0.146,0.404,0.218,0.623,0.218c0.294,0,0.585-0.129,0.783-0.377c0.344-0.432,0.273-1.061-0.159-1.405   c-0.801-0.638-1.577-1.331-2.305-2.06l-7.398-7.398l7.629-7.629c7.334-7.333,18.003-9.836,27.839-6.534   c0.523,0.173,1.09-0.107,1.267-0.63c0.175-0.523-0.106-1.091-0.63-1.267c-10.562-3.545-22.016-0.857-29.89,7.016L0,30.368   l8.812,8.812C9.593,39.962,10.426,40.705,11.285,41.39z"
   id="path2" />
	<path
   d="M50.237,21.325c-1.348-1.348-2.826-2.564-4.394-3.616c-0.458-0.307-1.081-0.185-1.388,0.273   c-0.308,0.458-0.185,1.08,0.273,1.388c1.46,0.979,2.838,2.113,4.094,3.369l7.398,7.398l-7.629,7.629   c-7.385,7.385-18.513,9.882-28.352,6.356c-0.52-0.187-1.093,0.084-1.279,0.604c-0.186,0.52,0.084,1.092,0.604,1.279   c3.182,1.14,6.49,1.693,9.776,1.693c7.621,0,15.124-2.977,20.665-8.518l9.043-9.043L50.237,21.325z"
   id="path4" />
	<path
   d="M30.539,41.774c-2.153,0-4.251-0.598-6.07-1.73c-0.467-0.29-1.084-0.148-1.377,0.321c-0.292,0.469-0.148,1.085,0.321,1.377   c2.135,1.33,4.6,2.032,7.126,2.032c7.444,0,13.5-6.056,13.5-13.5c0-2.685-0.787-5.279-2.275-7.502   c-0.308-0.459-0.93-0.582-1.387-0.275c-0.459,0.308-0.582,0.929-0.275,1.387c1.267,1.893,1.937,4.102,1.937,6.39   C42.039,36.616,36.88,41.774,30.539,41.774z"
   id="path6" />
	<path
   d="M30.539,18.774c2.065,0,4.089,0.553,5.855,1.6c0.474,0.281,1.088,0.125,1.37-0.351c0.281-0.475,0.125-1.088-0.351-1.37   c-2.074-1.229-4.451-1.879-6.875-1.879c-7.444,0-13.5,6.056-13.5,13.5c0,2.084,0.462,4.083,1.374,5.941   c0.174,0.354,0.529,0.56,0.899,0.56c0.147,0,0.298-0.033,0.439-0.102c0.496-0.244,0.701-0.843,0.458-1.338   c-0.776-1.582-1.17-3.284-1.17-5.06C19.039,23.933,24.198,18.774,30.539,18.774z"
   id="path8" />
	<path
   d="M54.621,5.567c-0.391-0.391-1.023-0.391-1.414,0l-46.5,46.5c-0.391,0.391-0.391,1.023,0,1.414   c0.195,0.195,0.451,0.293,0.707,0.293s0.512-0.098,0.707-0.293l46.5-46.5C55.012,6.591,55.012,5.958,54.621,5.567z"
   id="path10" />
</g>
<g
   id="g14">
</g>
<g
   id="g16">
</g>
<g
   id="g18">
</g>
<g
   id="g20">
</g>
<g
   id="g22">
</g>
<g
   id="g24">
</g>
<g
   id="g26">
</g>
<g
   id="g28">
</g>
<g
   id="g30">
</g>
<g
   id="g32">
</g>
<g
   id="g34">
</g>
<g
   id="g36">
</g>
<g
   id="g38">
</g>
<g
   id="g40">
</g>
<g
   id="g42">
</g>
</svg>